<?xml version="1.0" standalone="no"?>
<!DOCTYPE svg PUBLIC "-//W3C//DTD SVG 20010904//EN"
 "http://www.w3.org/TR/2001/REC-SVG-20010904/DTD/svg10.dtd">
<svg version="1.0" xmlns="http://www.w3.org/2000/svg"
 width="1600.000000pt" height="1600.000000pt" viewBox="0 0 1600.000000 1600.000000"
 preserveAspectRatio="xMidYMid meet">
<metadata>
Created by potrace 1.13, written by Peter Selinger 2001-2015
</metadata>
<g transform="translate(0.000000,1600.000000) scale(0.080000,-0.080000)"
fill="#000000" stroke="none">
<path d="M9711 18672 c-25 -26 -79 -103 -119 -172 -80 -136 -203 -334 -351
-567 -84 -132 -237 -378 -331 -533 -18 -30 -43 -71 -55 -90 -12 -19 -80 -127
-150 -240 -71 -113 -138 -218 -149 -235 -28 -40 -41 -61 -71 -115 -14 -25 -44
-74 -66 -110 -22 -36 -77 -123 -121 -195 -105 -172 -208 -336 -257 -410 -22
-33 -103 -163 -180 -290 -150 -246 -217 -353 -368 -590 -53 -82 -109 -172
-125 -200 -16 -27 -54 -88 -83 -135 -30 -47 -72 -116 -94 -155 -21 -38 -55
-94 -75 -122 -20 -29 -36 -55 -36 -58 0 -3 91 -5 203 -5 l203 0 79 128 c44 70
112 178 152 239 40 62 73 115 73 117 0 2 18 33 39 67 22 35 72 118 112 184 40
66 102 165 138 220 73 115 78 122 195 310 186 298 248 400 263 429 9 17 48 81
88 141 87 132 385 610 457 732 28 49 88 144 133 213 44 69 100 157 124 195 23
39 85 138 136 220 52 83 115 186 141 230 155 263 184 302 217 289 15 -5 77
-97 170 -249 86 -142 244 -391 412 -650 47 -71 108 -166 135 -210 28 -44 96
-150 150 -235 55 -85 107 -168 117 -185 9 -16 35 -59 58 -95 23 -36 82 -128
131 -204 49 -76 98 -154 109 -173 11 -18 63 -98 115 -178 147 -224 183 -281
261 -410 40 -66 91 -147 114 -180 23 -33 71 -109 108 -170 37 -60 97 -155 133
-210 76 -117 162 -250 229 -355 27 -41 68 -105 92 -142 l44 -68 205 0 206 0
-19 28 c-123 189 -223 346 -297 469 -33 54 -80 130 -106 168 -26 39 -84 129
-128 200 -45 72 -133 209 -197 305 -63 96 -118 182 -122 190 -4 8 -52 86 -107
172 -92 142 -152 237 -225 356 -31 50 -166 260 -311 483 -102 156 -155 240
-269 426 -30 48 -78 124 -106 168 -28 44 -73 115 -101 158 -61 98 -184 288
-289 449 -82 126 -175 274 -287 456 -62 101 -111 154 -202 216 -59 40 -91 35
-145 -22z"/>
<path d="M9836 17183 c-61 -16 -108 -67 -195 -213 -34 -58 -118 -193 -186
-300 -68 -107 -142 -226 -166 -265 -23 -38 -68 -108 -98 -155 -31 -47 -74
-116 -95 -155 -38 -68 -62 -106 -218 -345 -73 -112 -107 -168 -147 -241 -11
-19 -47 -77 -81 -128 -34 -51 -77 -121 -96 -155 -19 -33 -67 -111 -107 -172
-151 -233 -257 -403 -257 -411 0 -2 -13 -24 -30 -48 -16 -24 -30 -46 -30 -50
0 -3 -9 -18 -19 -33 -10 -15 -51 -79 -91 -142 -73 -116 -152 -239 -219 -340
-66 -100 163 -90 -2076 -90 -2039 1 -4016 -7 -4072 -16 -31 -5 -33 -8 -33 -44
0 -26 5 -40 13 -40 17 0 73 -54 90 -88 8 -15 27 -52 42 -82 16 -30 45 -74 66
-98 20 -23 45 -59 54 -80 10 -20 26 -46 36 -57 10 -11 25 -37 34 -57 8 -21 28
-52 44 -70 31 -35 101 -162 101 -182 0 -7 16 -28 36 -47 20 -18 46 -54 59 -79
13 -25 35 -56 50 -70 15 -14 40 -50 55 -81 16 -30 35 -61 44 -68 20 -17 61
-88 75 -132 6 -20 27 -54 47 -77 19 -22 41 -56 49 -75 7 -18 32 -55 54 -82 23
-27 41 -56 41 -63 0 -7 22 -37 48 -65 27 -29 63 -83 82 -122 18 -38 49 -88 67
-110 l34 -40 -110 -3 c-83 -2 -111 -6 -111 -16 0 -12 -26 -23 -100 -42 -46
-12 -135 -72 -169 -114 -88 -110 -116 -261 -115 -625 0 -283 14 -397 59 -485
59 -117 122 -163 279 -207 l91 -26 568 -6 569 -6 39 -45 c21 -25 47 -64 58
-86 11 -23 36 -56 55 -75 19 -18 43 -51 51 -73 9 -23 31 -57 50 -76 18 -19 52
-71 75 -115 22 -44 52 -91 64 -105 13 -14 34 -44 45 -68 12 -24 37 -63 56 -88
42 -54 43 -71 9 -84 -40 -16 -1677 -13 -1692 2 -9 9 -12 76 -12 239 0 199 -2
228 -16 233 -9 3 -52 -5 -96 -19 -43 -14 -89 -25 -102 -25 -13 0 -47 -8 -77
-19 -30 -10 -72 -21 -94 -25 -22 -4 -55 -12 -73 -19 l-32 -11 0 -148 c0 -118
3 -148 14 -148 9 0 19 -28 30 -85 17 -87 64 -186 111 -235 31 -32 136 -85 198
-101 27 -7 47 -17 47 -25 0 -12 168 -14 1054 -14 l1054 0 36 -70 c20 -38 41
-72 46 -75 22 -14 7 -60 -47 -146 -32 -49 -88 -136 -124 -192 -36 -56 -84
-134 -107 -174 -23 -39 -65 -106 -92 -147 -28 -42 -50 -78 -50 -80 0 -6 -84
-141 -162 -261 -36 -55 -86 -134 -111 -175 -136 -222 -225 -365 -280 -453 -34
-53 -102 -161 -151 -240 -50 -78 -109 -171 -131 -207 -23 -36 -66 -105 -95
-155 -52 -86 -94 -154 -185 -295 -23 -36 -95 -150 -160 -255 -64 -104 -131
-212 -149 -240 -17 -27 -35 -57 -41 -66 -48 -81 -80 -131 -153 -242 -106 -162
-132 -215 -132 -264 0 -74 62 -138 146 -151 28 -5 1026 -5 2218 0 l2168 8 38
-21 c52 -29 72 -22 156 58 39 38 111 103 160 145 335 288 465 400 483 419 9 8
50 44 91 79 41 36 98 85 125 110 28 25 82 72 120 106 39 34 133 117 209 185
77 68 180 159 230 201 50 42 137 116 192 165 56 48 150 131 210 183 60 52 154
135 209 185 56 49 157 138 225 197 69 58 141 121 161 140 19 18 63 57 97 86
34 30 62 60 62 68 0 12 35 14 200 14 l200 0 0 -23 c0 -17 -14 -34 -46 -57 -62
-44 -159 -126 -274 -230 -93 -85 -137 -123 -410 -358 -124 -107 -188 -163
-230 -202 -8 -8 -45 -40 -80 -70 -73 -61 -257 -222 -401 -350 -147 -131 -309
-272 -474 -414 -82 -70 -157 -136 -165 -145 -8 -9 -46 -43 -85 -75 -38 -32
-140 -121 -225 -196 -85 -76 -216 -191 -290 -255 -74 -64 -159 -137 -187 -163
-57 -49 -63 -66 -34 -103 10 -13 26 -40 36 -59 10 -19 32 -53 49 -75 17 -22
45 -69 61 -105 16 -36 38 -75 49 -88 11 -12 30 -42 41 -65 36 -71 39 -69 255
126 49 45 296 259 369 321 25 21 48 42 51 46 3 4 34 31 70 60 36 29 92 79 125
109 33 31 87 79 119 106 33 28 96 83 140 123 45 39 135 118 201 174 66 56 122
104 125 108 3 3 57 50 120 105 63 54 166 144 229 199 272 240 411 363 481 426
41 38 109 96 150 131 41 34 145 123 230 198 85 75 184 161 220 190 36 30 70
60 75 65 12 13 151 135 210 185 22 19 76 66 120 106 44 40 118 105 164 145 46
41 86 82 89 92 4 17 19 18 203 18 l199 0 0 -24 c0 -18 -17 -37 -67 -74 -38
-28 -105 -84 -150 -124 -93 -83 -262 -230 -402 -351 -52 -45 -104 -91 -114
-101 -11 -11 -46 -40 -76 -65 -31 -24 -99 -83 -152 -130 -150 -134 -326 -289
-414 -365 -100 -86 -203 -176 -275 -241 -65 -58 -232 -203 -340 -295 -41 -35
-100 -86 -130 -114 -65 -59 -109 -98 -205 -181 -39 -33 -83 -73 -100 -89 -16
-16 -70 -63 -120 -104 -49 -41 -118 -101 -151 -133 -34 -32 -100 -88 -145
-124 -46 -37 -109 -90 -139 -119 -31 -28 -105 -94 -165 -146 -61 -52 -155
-135 -211 -185 -55 -49 -116 -104 -135 -120 -155 -137 -216 -191 -226 -205
-20 -25 -15 -60 17 -112 17 -26 30 -51 30 -54 0 -3 16 -24 35 -47 19 -22 35
-47 35 -55 0 -7 16 -35 36 -60 19 -26 50 -72 67 -102 25 -43 38 -56 60 -58 28
-3 30 -2 192 139 16 15 71 62 121 105 234 202 257 222 389 338 50 43 92 82 95
85 3 3 34 31 70 61 36 30 72 61 81 70 37 35 108 99 169 150 87 74 127 109 164
145 18 17 56 51 86 76 30 26 89 75 130 110 41 35 80 68 86 74 18 17 141 125
284 250 130 113 223 195 319 281 25 22 93 81 151 130 58 50 123 106 145 126
22 19 99 86 170 148 72 62 135 118 140 124 6 6 39 36 75 66 69 58 248 217 265
235 6 6 53 46 105 90 52 44 118 101 145 126 28 26 82 73 120 104 67 55 214
183 225 196 3 3 57 50 120 104 63 54 153 132 200 175 47 43 123 111 170 152
47 41 89 84 95 96 10 22 13 22 212 22 249 0 249 0 111 -108 -25 -20 -133 -114
-240 -207 -106 -94 -224 -197 -263 -229 -38 -32 -106 -91 -150 -131 -44 -40
-118 -105 -165 -145 -47 -39 -110 -95 -140 -124 -30 -28 -84 -76 -120 -106
-36 -30 -103 -88 -150 -130 -47 -42 -112 -98 -145 -125 -33 -27 -103 -88 -155
-135 -52 -47 -126 -112 -165 -145 -81 -70 -231 -201 -255 -224 -9 -9 -79 -70
-155 -136 -77 -66 -149 -129 -161 -141 -12 -12 -84 -75 -161 -140 -76 -65
-140 -121 -143 -124 -5 -5 -50 -45 -150 -130 -153 -133 -310 -270 -335 -295
-11 -11 -49 -45 -85 -75 -75 -63 -250 -219 -265 -235 -5 -6 -37 -34 -70 -61
-33 -27 -98 -83 -145 -124 -47 -42 -112 -98 -145 -125 -33 -27 -103 -88 -155
-135 -52 -47 -129 -114 -170 -150 -41 -35 -100 -87 -130 -114 -94 -85 -123
-110 -183 -160 -32 -27 -62 -58 -68 -68 -12 -22 9 -67 57 -121 19 -20 34 -46
34 -56 0 -11 18 -40 40 -65 21 -26 53 -76 70 -114 72 -155 69 -155 206 -35 30
26 72 63 92 82 57 52 305 268 396 345 44 38 137 119 206 180 69 61 152 134
185 161 33 27 85 73 115 101 49 47 156 140 444 388 119 103 224 196 250 222
12 11 66 58 121 104 55 47 143 123 195 170 52 47 165 146 250 220 85 74 171
149 190 166 19 17 94 82 165 144 271 234 321 277 414 360 53 47 130 114 171
150 41 36 120 105 175 155 56 49 158 140 228 200 245 210 322 278 362 313 22
20 90 78 150 131 61 52 115 100 121 106 20 19 159 143 193 171 19 16 77 67
130 113 53 46 123 107 156 136 254 221 305 267 305 280 0 13 30 15 194 15
l195 0 23 39 c36 62 80 129 115 174 17 23 50 78 72 123 22 44 57 97 76 117 20
21 43 54 52 74 8 21 35 59 59 86 24 27 44 55 44 62 0 18 49 104 86 150 17 22
35 50 38 62 4 13 23 42 43 65 20 24 42 57 49 73 9 23 85 128 109 154 2 1 14
-4 26 -12 24 -17 80 -99 171 -251 33 -54 124 -196 202 -315 200 -305 386 -597
386 -606 0 -2 19 -32 43 -67 24 -35 78 -119 122 -188 43 -69 121 -190 173
-270 137 -209 154 -235 213 -332 101 -163 202 -323 294 -463 80 -122 163 -250
320 -495 22 -35 51 -82 65 -106 46 -80 163 -73 -1360 -79 -745 -3 -1638 -7
-1985 -10 -683 -6 -683 -6 -677 46 1 13 15 41 30 63 49 70 72 111 82 147 6 20
27 56 49 80 21 24 50 67 64 94 14 28 37 61 52 75 15 14 45 60 66 103 22 42 54
94 73 115 18 20 47 63 65 95 18 31 36 57 40 57 4 0 16 19 26 43 11 23 36 61
56 84 21 22 43 58 49 80 13 48 117 213 181 290 15 17 45 69 68 115 22 47 58
102 78 125 21 22 52 61 68 88 17 26 49 78 72 114 23 36 42 70 42 74 2 16 -40
-15 -136 -100 -54 -49 -127 -113 -163 -143 -36 -30 -81 -69 -100 -86 -143
-128 -352 -312 -430 -379 -201 -172 -511 -443 -683 -596 -71 -63 -170 -149
-220 -193 -51 -43 -132 -115 -182 -160 -49 -45 -106 -94 -125 -110 -62 -51
-143 -120 -200 -171 -30 -28 -86 -77 -125 -110 -38 -32 -93 -79 -120 -105 -28
-25 -82 -73 -120 -106 -259 -227 -424 -371 -515 -449 -58 -49 -148 -128 -200
-175 -52 -47 -156 -138 -230 -203 -127 -110 -217 -189 -469 -411 -57 -50 -141
-122 -186 -161 -137 -116 -284 -244 -385 -335 -52 -47 -142 -126 -200 -175
-57 -50 -112 -97 -121 -105 -71 -65 -114 -104 -179 -159 -172 -148 -214 -200
-175 -214 8 -4 34 -48 59 -99 25 -51 64 -117 86 -147 22 -29 40 -58 40 -65 0
-7 15 -30 33 -52 18 -21 40 -56 49 -76 28 -59 56 -60 125 -2 85 71 201 172
222 192 45 43 111 101 168 148 34 28 99 85 145 126 92 84 299 267 386 341 72
62 331 287 352 307 8 8 45 40 80 70 36 30 126 109 200 175 74 66 164 145 200
175 36 30 67 58 70 61 6 7 273 238 334 289 23 19 82 71 132 115 49 44 123 109
164 145 41 36 97 86 125 111 27 25 104 92 170 149 66 57 147 129 181 160 33
31 101 90 150 130 49 41 126 107 171 147 112 99 247 197 252 182 2 -6 -16 -49
-40 -95 -45 -89 -46 -114 -1 -72 15 14 38 32 52 39 26 15 48 15 3295 21 1341
3 1257 0 1318 57 35 32 57 72 57 103 -1 55 -30 105 -257 449 -51 76 -122 187
-158 246 -98 158 -264 420 -370 583 -189 289 -272 420 -365 570 -76 123 -144
228 -295 460 -115 177 -213 329 -230 358 -6 9 -23 36 -38 59 -15 24 -27 45
-27 48 0 3 -9 18 -19 33 -38 54 -161 243 -161 247 0 3 -64 103 -143 222 -201
305 -201 305 -193 355 4 23 12 48 18 55 8 11 -23 13 -171 13 l-181 0 0 24 c0
13 7 29 15 36 7 6 29 37 47 68 17 31 40 71 49 87 10 17 24 41 31 55 7 14 29
51 48 83 19 33 45 75 56 95 51 88 75 130 99 172 14 25 37 63 50 85 13 22 31
54 40 70 9 17 31 55 50 85 19 30 40 66 47 80 7 14 33 59 58 100 25 41 51 86
58 100 7 14 24 43 37 65 13 22 36 60 50 85 14 25 37 63 50 85 13 22 34 58 45
80 12 22 34 60 50 85 16 25 36 59 45 75 8 17 28 53 45 80 16 28 41 70 55 95
14 25 37 63 50 85 13 22 35 60 50 85 14 25 37 63 50 85 13 22 34 58 45 80 12
22 37 65 56 95 19 30 41 69 49 85 9 17 27 48 40 70 13 22 36 60 50 85 14 25
39 68 55 95 17 28 35 61 42 75 7 14 20 36 30 49 10 13 18 32 18 42 0 18 13 19
250 19 l251 0 -24 -42 c-14 -24 -41 -70 -61 -103 -20 -33 -55 -96 -77 -140
-22 -45 -57 -102 -78 -128 -39 -46 -85 -121 -191 -303 -90 -155 -200 -333
-260 -424 -32 -47 -70 -107 -85 -135 -16 -27 -53 -87 -84 -133 -157 -233 -176
-267 -311 -539 -54 -111 -119 -232 -144 -270 -25 -38 -66 -116 -93 -174 -44
-96 -156 -290 -191 -331 -14 -17 -12 -18 31 -18 38 0 47 3 47 18 0 9 6 28 14
42 7 14 26 48 41 75 16 28 37 66 47 85 11 19 32 58 48 85 16 28 38 68 50 90
12 22 34 63 50 90 16 28 38 69 49 91 13 29 29 45 52 53 35 12 1797 14 1853 2
30 -6 35 -13 98 -128 13 -23 78 -140 146 -260 67 -120 122 -224 122 -231 0 -9
66 -12 280 -12 l280 0 0 29 c0 16 -7 34 -15 41 -9 7 -36 49 -61 94 -25 45 -67
117 -94 161 -27 44 -61 100 -75 125 -15 25 -37 63 -50 85 -53 88 -71 118 -86
145 -9 16 -24 41 -35 57 -10 15 -25 40 -34 55 -8 16 -36 64 -62 108 -27 44
-69 116 -95 160 -27 45 -62 104 -80 133 -18 29 -39 66 -47 82 -9 17 -29 50
-46 75 -16 25 -35 56 -42 70 -12 24 -37 67 -83 140 -13 19 -56 91 -96 160 -41
69 -78 132 -84 141 -5 9 -22 38 -38 65 -15 27 -32 56 -37 64 -22 34 -92 150
-137 228 -53 92 -63 109 -143 242 -30 50 -65 108 -77 128 -51 85 -64 122 -51
147 45 80 81 134 103 155 13 12 43 62 66 109 23 47 54 100 69 116 15 17 39 53
55 80 15 28 36 59 45 70 10 11 35 56 56 100 21 44 58 104 81 133 24 29 43 59
43 67 0 8 15 32 33 52 19 21 53 74 76 118 23 44 57 96 75 115 19 19 36 48 40
63 4 16 25 47 47 70 22 23 52 62 65 87 14 25 38 63 54 85 16 22 36 59 44 82 8
23 29 63 48 88 18 25 43 60 56 77 12 17 22 39 22 49 0 11 3 19 8 19 4 0 32 31
62 69 30 40 64 72 77 76 19 4 24 11 21 33 l-3 27 -3015 0 c-2898 0 -3016 1
-3047 18 -35 20 -74 71 -168 221 -33 53 -114 180 -180 281 -227 350 -288 445
-334 520 -93 152 -200 319 -423 660 -57 88 -128 198 -157 245 -154 250 -186
301 -349 550 -63 96 -129 198 -147 225 -172 270 -189 300 -208 369 -20 74 -49
116 -99 142 -28 14 -39 15 -72 7z m50 -535 c15 -24 46 -72 69 -108 43 -68 147
-232 250 -398 34 -53 101 -158 149 -232 161 -244 212 -324 255 -395 24 -38 65
-104 91 -145 27 -41 61 -95 76 -120 28 -47 72 -115 266 -410 63 -96 133 -206
157 -245 23 -38 67 -108 97 -155 30 -47 73 -116 97 -153 23 -37 53 -86 67
-107 115 -180 128 -211 93 -227 -10 -4 -783 -8 -1718 -8 l-1700 0 1 36 c1 21
11 51 25 70 13 19 29 43 36 54 55 94 185 305 228 370 62 93 145 225 281 450
53 87 104 171 114 185 35 50 249 387 304 480 81 134 197 320 309 495 53 83
153 245 223 360 70 116 134 218 142 228 27 30 59 21 88 -25z m-5126 -4653 c0
-12 54 -35 82 -35 4 0 32 -16 61 -34 68 -44 130 -113 161 -182 42 -92 73 -387
44 -412 -16 -12 -120 -41 -283 -78 -38 -8 -92 -20 -118 -27 -81 -19 -82 -18
-85 184 -1 95 -6 177 -11 182 -4 4 -315 8 -690 7 -446 0 -696 3 -721 10 -40
11 -59 32 -180 197 -19 26 -61 80 -92 119 -32 40 -58 75 -58 78 0 3 425 6 945
6 820 0 945 -2 945 -15z m1678 -22 c7 -21 17 -55 23 -76 5 -20 18 -54 29 -75
11 -20 20 -46 20 -57 0 -11 12 -42 25 -70 14 -27 25 -58 25 -68 0 -10 7 -32
17 -50 9 -18 24 -57 34 -87 33 -101 60 -175 80 -216 10 -22 19 -48 19 -58 0
-9 8 -33 19 -54 10 -20 22 -53 26 -72 4 -19 15 -51 25 -70 9 -19 24 -55 32
-80 31 -90 41 -116 60 -165 11 -27 24 -67 29 -88 5 -20 18 -54 29 -75 11 -20
20 -45 20 -54 0 -10 11 -42 25 -72 14 -30 25 -61 25 -69 0 -8 11 -39 25 -69
14 -29 25 -60 25 -68 0 -8 7 -28 15 -44 8 -16 22 -53 31 -83 9 -30 22 -66 30
-81 8 -15 14 -39 14 -53 0 -15 7 -32 15 -39 12 -10 19 -1 45 53 16 35 30 70
30 78 0 8 12 37 25 64 14 28 25 59 25 70 0 11 7 29 15 39 8 11 22 44 31 75 9
31 20 61 25 67 5 6 18 37 29 68 46 130 59 163 74 191 9 17 16 37 16 45 0 8 11
38 25 65 13 28 25 57 25 65 0 8 12 38 25 65 14 28 25 57 25 65 0 8 7 29 16 45
9 17 24 53 34 80 17 47 38 101 97 255 14 36 33 88 43 115 10 28 26 64 34 80 9
17 16 37 16 46 0 9 11 36 24 61 13 25 27 60 31 78 4 18 16 47 26 64 10 17 19
40 19 51 0 11 12 43 25 70 14 28 25 56 25 63 0 9 44 12 189 12 l188 0 17 -57
c9 -32 25 -74 35 -93 10 -19 22 -49 25 -67 4 -17 16 -48 27 -69 10 -21 19 -45
19 -53 0 -8 9 -33 19 -55 11 -23 29 -66 39 -96 42 -118 53 -147 71 -190 10
-25 24 -61 31 -80 7 -19 24 -64 37 -100 14 -36 34 -90 45 -120 11 -30 28 -73
39 -96 10 -22 19 -47 19 -55 0 -8 8 -30 19 -49 10 -19 22 -51 26 -70 4 -19 16
-51 26 -70 11 -19 19 -41 19 -49 0 -8 9 -33 19 -55 11 -23 29 -68 41 -101 12
-33 30 -83 40 -111 10 -28 25 -65 34 -82 9 -17 16 -39 16 -49 0 -10 8 -34 19
-53 10 -19 21 -46 25 -60 20 -70 61 -160 70 -157 6 2 16 24 22 48 6 25 19 59
28 77 9 17 16 39 16 48 0 10 8 36 19 58 18 39 29 71 67 184 9 26 24 65 34 87
10 22 24 60 30 84 6 24 16 51 21 60 9 15 31 75 66 181 8 25 22 63 32 85 10 22
22 56 26 75 4 19 13 44 21 55 7 11 18 42 25 68 6 26 20 64 30 85 11 20 19 44
19 53 0 9 11 41 25 71 14 29 25 62 25 74 0 11 5 25 10 30 9 9 30 63 75 199 9
28 28 75 41 106 13 31 24 63 24 70 0 8 7 28 16 44 9 17 22 50 30 75 7 25 19
62 26 83 l13 37 242 0 c188 0 243 -3 243 -12 -1 -19 -33 -108 -53 -145 -9 -18
-17 -40 -17 -50 0 -10 -7 -31 -16 -48 -15 -29 -28 -60 -74 -190 -12 -33 -30
-78 -41 -101 -10 -22 -19 -47 -19 -55 0 -8 -7 -27 -16 -44 -9 -16 -24 -52 -34
-80 -10 -27 -30 -81 -45 -120 -15 -38 -38 -99 -52 -135 -13 -36 -36 -93 -49
-128 -62 -162 -77 -202 -101 -262 -13 -36 -33 -87 -43 -115 -10 -27 -25 -63
-34 -80 -9 -16 -16 -39 -16 -50 0 -11 -9 -34 -19 -51 -10 -17 -22 -46 -26 -65
-4 -19 -13 -43 -19 -54 -7 -11 -21 -45 -31 -75 -10 -30 -24 -64 -31 -75 -6
-11 -15 -35 -19 -54 -4 -18 -15 -48 -25 -65 -10 -17 -21 -47 -25 -66 -4 -19
-16 -49 -26 -66 -10 -17 -19 -39 -19 -48 0 -9 -11 -38 -24 -64 -13 -26 -27
-63 -31 -82 -4 -19 -14 -45 -22 -57 -8 -12 -19 -37 -23 -55 -4 -18 -18 -58
-31 -88 -12 -30 -31 -79 -43 -107 l-21 -53 -207 0 c-203 0 -208 1 -208 20 0
12 -9 38 -20 60 -11 22 -20 46 -20 54 0 9 -11 40 -25 70 -14 30 -25 61 -25 68
0 7 -12 36 -25 63 -14 28 -25 57 -25 65 0 8 -12 38 -25 65 -14 28 -25 58 -25
69 0 10 -9 35 -20 55 -10 20 -23 52 -29 71 -10 37 -41 119 -71 185 -10 22 -25
60 -33 85 -35 104 -56 159 -71 188 -9 17 -16 38 -16 46 0 9 -11 40 -25 70 -14
30 -25 60 -25 66 0 6 -11 33 -25 60 -14 27 -25 57 -25 67 0 10 -12 41 -25 68
-14 28 -25 56 -25 64 0 8 -8 33 -19 55 -10 23 -25 61 -34 86 -28 82 -63 175
-75 197 -7 12 -12 33 -12 46 0 14 -7 30 -15 37 -12 10 -19 1 -45 -56 -16 -37
-30 -72 -30 -78 0 -6 -12 -33 -25 -61 -14 -27 -25 -57 -25 -65 0 -8 -11 -37
-25 -64 -14 -27 -25 -56 -25 -64 0 -8 -9 -29 -19 -46 -10 -17 -22 -46 -26 -65
-4 -19 -16 -48 -26 -65 -10 -17 -19 -37 -19 -45 0 -8 -9 -33 -19 -55 -23 -48
-56 -130 -82 -205 -10 -30 -23 -59 -28 -65 -5 -6 -14 -27 -19 -46 -12 -39 -54
-144 -83 -206 -10 -22 -19 -47 -19 -55 0 -8 -11 -36 -25 -63 -14 -27 -25 -57
-25 -65 0 -9 -6 -26 -14 -37 -8 -11 -24 -47 -36 -80 -51 -142 -59 -161 -74
-189 -9 -16 -16 -36 -16 -43 0 -7 -11 -35 -25 -62 -14 -27 -25 -55 -25 -62 0
-7 -11 -35 -25 -63 -13 -27 -25 -56 -25 -62 0 -10 -50 -13 -214 -13 l-213 0
-22 73 c-12 39 -28 81 -36 91 -8 11 -15 29 -15 40 0 12 -12 44 -25 71 -14 28
-25 56 -25 63 0 7 -11 35 -25 62 -14 27 -25 56 -25 65 0 9 -11 38 -25 65 -14
27 -25 55 -25 63 0 7 -8 29 -18 49 -11 20 -25 57 -32 82 -7 26 -16 49 -21 51
-4 3 -15 31 -24 63 -9 31 -21 62 -26 68 -5 6 -18 37 -29 68 -46 130 -59 163
-74 191 -9 17 -16 37 -16 45 0 8 -11 38 -25 65 -13 28 -25 57 -25 65 0 8 -11
36 -25 62 -14 26 -25 55 -25 65 0 10 -7 32 -16 48 -9 17 -24 53 -34 80 -52
142 -69 187 -78 198 -5 7 -13 28 -17 47 -4 19 -15 49 -25 66 -10 17 -21 47
-25 65 -4 19 -14 45 -22 57 -8 13 -21 47 -30 75 -8 29 -19 57 -23 62 -5 6 -18
37 -30 70 -50 140 -59 161 -74 190 -9 17 -16 37 -16 45 0 9 -9 34 -20 55 -11
22 -25 58 -31 80 -6 22 -17 47 -25 56 -7 8 -17 30 -20 47 l-6 32 283 0 284 0
13 -37z m7252 22 c0 -8 17 -18 43 -25 23 -6 49 -15 57 -20 8 -5 31 -18 50 -29
53 -29 140 -134 140 -169 0 -7 9 -32 20 -56 37 -82 56 -528 25 -573 -19 -26
-65 -40 -172 -52 -43 -4 -128 -18 -189 -31 -97 -20 -114 -21 -139 -9 l-29 14
3 271 c2 180 -1 274 -8 278 -13 8 -1869 8 -1882 0 -5 -3 -9 -393 -9 -959 0
-860 2 -953 16 -959 29 -11 1844 -7 1865 5 20 10 20 20 18 331 -1 263 1 322
12 329 21 13 68 11 129 -6 30 -9 96 -22 145 -29 113 -18 215 -45 238 -64 15
-13 17 -36 17 -196 0 -100 -5 -234 -11 -299 -17 -196 -76 -316 -193 -391 -52
-33 -64 -38 -118 -50 -16 -4 -28 -13 -28 -21 0 -13 -140 -15 -1145 -15 -987 0
-1145 2 -1145 14 0 14 -8 18 -63 30 -46 11 -130 71 -170 122 -20 26 -37 51
-37 56 0 5 -9 29 -20 53 -43 95 -50 242 -50 1095 0 627 3 821 14 916 23 192
77 296 192 369 30 19 58 35 62 35 28 0 82 23 82 35 0 13 150 15 1140 15 993 0
1140 -2 1140 -15z m-10617 -396 c38 -20 78 -62 97 -104 10 -22 32 -53 48 -68
16 -16 38 -47 48 -70 10 -23 32 -60 49 -82 17 -22 47 -74 67 -116 21 -41 51
-92 67 -113 17 -21 33 -47 37 -59 3 -12 20 -36 37 -54 l30 -32 -27 -11 c-36
-13 -755 -14 -790 0 l-26 10 0 349 c0 270 3 350 13 354 26 11 328 7 350 -4z
m13485 -87 c10 -25 38 -75 98 -177 13 -22 33 -58 44 -80 12 -22 34 -62 50 -90
16 -27 37 -66 48 -85 49 -88 77 -138 99 -175 12 -22 32 -58 43 -80 11 -22 33
-62 50 -90 17 -27 40 -68 51 -90 11 -22 32 -61 47 -87 105 -183 132 -234 128
-245 -8 -20 -1404 -19 -1412 1 -4 11 41 100 132 256 8 14 47 83 87 154 39 70
84 149 100 175 15 25 34 62 43 81 9 19 25 45 35 59 10 13 19 30 19 38 0 8 13
31 29 51 17 20 41 60 55 88 14 28 33 57 42 65 9 7 33 47 53 89 85 173 129 212
159 142z m-11823 -632 c92 -21 172 -47 198 -63 15 -9 38 -24 52 -32 32 -20
102 -115 111 -151 4 -16 17 -49 28 -74 20 -43 21 -60 21 -455 -1 -392 -1 -413
-22 -470 -12 -33 -24 -73 -27 -88 -12 -51 -113 -187 -139 -187 -5 0 -21 -8
-35 -19 -27 -18 -40 -23 -94 -35 -16 -4 -28 -13 -28 -21 0 -12 -14 -15 -64
-15 -71 0 -81 8 -106 85 -18 57 -54 126 -111 213 -27 42 -48 81 -46 87 2 5 40
11 84 13 49 2 85 8 90 15 4 7 6 188 3 402 l-5 390 -350 5 c-192 3 -355 9 -362
13 -22 14 -161 231 -192 301 -24 53 -28 72 -20 82 9 12 99 14 493 14 264 -1
499 -5 521 -10z m199 -2121 c15 -11 36 -40 48 -62 11 -23 35 -58 53 -78 17
-19 45 -62 60 -95 16 -32 50 -91 77 -130 26 -39 48 -75 48 -81 0 -5 15 -30 33
-54 17 -24 41 -61 51 -81 10 -21 30 -45 43 -54 14 -8 35 -39 48 -68 13 -28 30
-58 39 -65 9 -7 16 -22 16 -32 0 -10 18 -39 41 -65 23 -26 46 -59 52 -73 6
-14 23 -42 37 -61 15 -19 35 -51 46 -70 10 -19 33 -52 49 -72 17 -20 41 -57
54 -82 12 -25 28 -46 34 -46 7 0 64 50 127 110 l115 110 193 0 c239 0 241 -2
83 -126 -41 -32 -127 -105 -190 -162 -64 -57 -133 -115 -154 -129 -37 -23 -38
-25 -23 -46 9 -12 28 -42 43 -65 16 -24 39 -58 53 -75 28 -36 74 -119 85 -156
4 -14 25 -47 46 -73 21 -26 41 -57 44 -68 9 -29 42 -25 84 13 91 81 183 160
261 227 47 39 112 97 145 128 33 32 87 79 120 107 33 27 101 86 150 130 50 44
122 107 160 140 103 89 145 131 145 143 0 9 55 12 200 12 240 0 243 -2 123
-100 -42 -35 -153 -131 -248 -214 -215 -190 -278 -246 -429 -375 -128 -109
-217 -188 -277 -243 -20 -18 -80 -69 -133 -113 -53 -44 -99 -90 -102 -103 -8
-30 36 -123 92 -191 24 -29 44 -59 44 -65 0 -6 19 -36 41 -66 23 -30 50 -74
60 -97 18 -42 43 -63 76 -63 19 0 119 82 295 240 127 115 289 256 383 336 80
67 307 266 315 275 3 4 39 35 80 69 41 35 111 95 155 135 89 81 276 244 435
379 113 97 190 172 190 187 0 5 86 9 200 9 193 0 200 -1 200 -20 0 -12 -21
-35 -52 -60 -56 -43 -116 -93 -158 -132 -14 -13 -74 -66 -135 -118 -60 -52
-119 -103 -131 -115 -11 -11 -87 -78 -170 -149 -82 -71 -153 -135 -159 -140
-5 -6 -52 -47 -104 -91 -52 -44 -108 -92 -125 -108 -17 -16 -69 -60 -116 -100
-47 -39 -128 -110 -180 -157 -52 -47 -131 -117 -175 -154 -97 -83 -199 -174
-240 -212 -17 -16 -93 -83 -170 -149 -175 -151 -173 -149 -181 -181 -6 -25 7
-63 38 -106 8 -11 9 -21 3 -27 -6 -5 -781 -12 -1966 -16 -1909 -7 -1957 -7
-1967 11 -12 23 -3 45 61 144 191 294 267 414 322 508 9 15 107 177 135 222 5
8 76 120 157 248 81 128 190 301 242 385 51 84 106 172 122 197 16 25 36 58
45 75 9 16 54 86 100 156 46 70 84 130 84 134 0 3 8 18 19 33 17 24 53 82 116
182 12 19 39 64 60 100 21 36 95 153 163 260 69 107 154 242 189 300 59 97
102 150 122 150 5 0 20 -9 35 -21z"/>
<path d="M2839 7644 c-7 -9 -18 -24 -24 -35 -23 -42 -103 -171 -165 -269 -37
-58 -70 -112 -74 -120 -3 -8 -21 -38 -39 -67 -18 -29 -45 -74 -61 -100 -17
-26 -66 -104 -111 -173 -84 -130 -160 -252 -311 -500 -48 -80 -124 -201 -167
-270 -44 -69 -107 -169 -141 -223 -33 -54 -78 -123 -98 -155 -21 -31 -41 -64
-45 -72 -5 -9 -34 -58 -66 -110 -142 -231 -167 -273 -167 -276 0 -1 -35 -57
-77 -123 -43 -66 -109 -169 -147 -228 -81 -126 -100 -184 -85 -252 12 -54 47
-94 109 -124 45 -22 46 -22 790 -22 1423 0 3045 7 3113 12 l67 6 0 174 0 174
-1775 -7 c-1864 -8 -1805 -9 -1805 34 0 9 19 45 43 82 23 36 47 74 54 85 15
25 79 127 146 232 29 45 85 135 126 200 41 65 104 165 140 223 72 114 68 107
128 212 23 40 74 123 115 185 112 171 128 196 436 700 115 188 158 255 247
393 34 52 90 142 125 200 35 58 81 131 102 162 21 31 38 59 38 62 0 4 -92 6
-204 6 -175 0 -205 -2 -217 -16z"/>
<path d="M16574 7598 c23 -35 68 -106 100 -158 32 -52 86 -140 122 -195 35
-55 67 -107 71 -115 4 -8 23 -40 44 -70 20 -30 76 -116 124 -190 48 -74 116
-180 152 -235 84 -130 146 -228 218 -345 99 -161 152 -244 393 -615 85 -132
190 -296 232 -365 43 -69 107 -170 144 -225 66 -100 81 -147 51 -159 -9 -3
-523 -6 -1143 -7 -620 -1 -1486 -4 -1924 -7 l-798 -4 0 -175 0 -176 2108 8
c2064 7 2108 7 2152 26 107 47 155 141 119 236 -11 31 -104 187 -177 300 -175
267 -265 408 -322 499 -162 259 -203 324 -254 404 -48 76 -317 495 -434 675
-67 105 -84 131 -151 240 -34 55 -107 170 -161 255 -54 85 -115 182 -136 215
-70 113 -108 170 -137 208 l-29 37 -203 0 -204 0 43 -62z"/>
<path d="M12160 4824 c-30 -26 -82 -72 -115 -103 -33 -31 -103 -92 -155 -135
-52 -44 -134 -114 -181 -155 -47 -42 -152 -134 -234 -206 -82 -71 -192 -168
-245 -215 -53 -47 -164 -143 -246 -214 -82 -71 -153 -135 -159 -141 -5 -6 -39
-35 -75 -64 -36 -30 -99 -84 -140 -121 -41 -37 -109 -96 -150 -130 -41 -34
-102 -87 -135 -118 -63 -59 -173 -156 -265 -233 -30 -26 -73 -64 -95 -85 -22
-22 -85 -77 -140 -124 -55 -46 -123 -104 -150 -130 -28 -25 -74 -65 -104 -90
-127 -106 -380 -334 -385 -347 -7 -17 37 -103 80 -158 17 -22 34 -50 38 -62 4
-12 21 -39 37 -60 17 -21 51 -79 75 -129 70 -143 89 -151 179 -68 28 25 90 80
139 122 49 42 133 115 185 162 53 47 146 128 206 179 61 51 137 119 170 150
33 31 116 105 185 163 69 59 146 126 172 150 26 24 69 61 95 83 109 92 254
228 275 258 12 18 39 50 60 72 21 22 38 43 38 47 0 11 57 92 79 112 12 11 21
27 21 37 0 9 22 41 48 71 27 29 68 89 91 133 24 44 53 91 66 105 12 14 26 35
30 48 3 12 29 50 56 84 27 34 52 74 55 88 3 14 10 34 16 45 6 11 16 29 22 40
6 11 26 37 44 59 17 22 32 45 32 52 0 7 23 42 50 78 28 36 50 71 50 78 0 7 19
37 43 65 23 29 56 78 72 110 17 32 48 80 70 108 22 28 49 66 59 85 10 19 29
46 42 60 23 26 84 140 84 158 0 5 18 34 40 63 63 84 53 92 -30 23z"/>
<path d="M10423 2113 c-37 -31 -93 -79 -123 -106 -111 -101 -127 -115 -250
-221 -69 -60 -132 -116 -140 -125 -8 -9 -61 -56 -118 -105 -57 -49 -106 -95
-109 -103 -3 -8 17 -58 45 -111 27 -53 53 -114 56 -134 l7 -38 54 0 c32 0 55
4 55 10 0 6 16 37 37 68 20 31 51 86 70 122 19 36 48 81 66 100 18 19 41 51
51 70 10 19 31 49 47 65 15 17 45 68 67 115 21 47 52 98 67 114 15 17 34 44
41 62 7 17 24 45 37 60 13 16 36 52 51 79 16 28 39 61 52 76 24 25 32 59 15
59 -6 0 -40 -26 -78 -57z"/>
</g>
</svg>
